<svg id="Layer_1" data-name="Layer 1" xmlns="http://www.w3.org/2000/svg" viewBox="0 0 209.08 137.01"><title>TheVoice Logo White</title><path d="M.92,14H6V3.3a.92.92,0,0,1,.93-.92H13a.93.93,0,0,1,.93.92V14H25.12A.92.92,0,0,1,26,15v5.51a.93.93,0,0,1-.92.93H13.93V33a10.79,10.79,0,0,0,.28,2.71,3.42,3.42,0,0,0,1,1.7,4,4,0,0,0,1.76.91,10.52,10.52,0,0,0,2.66.28h5.75a.93.93,0,0,1,.93.93V45a.93.93,0,0,1-.93.92h-6.6A27.7,27.7,0,0,1,13,45.4a9.89,9.89,0,0,1-4-1.7,6.83,6.83,0,0,1-2.32-3.11A13.58,13.58,0,0,1,6,35.78V21.4H.92A.93.93,0,0,1,0,20.47V15A.92.92,0,0,1,.92,14Z" fill="#fff"/><path d="M39.25,13.59q1.81-.29,3.45-.48a23.42,23.42,0,0,1,2.95-.2,28.37,28.37,0,0,1,5.74.56,11.86,11.86,0,0,1,4.67,2,10,10,0,0,1,3.14,4A15.5,15.5,0,0,1,60.37,26V45a.93.93,0,0,1-.93.92H53.36a.92.92,0,0,1-.92-.92V28.25q0-4.37-1.81-6a7.75,7.75,0,0,0-5.32-1.62,26.55,26.55,0,0,0-2.83.17c-1,.12-2.1.27-3.23.46V45a.92.92,0,0,1-.93.92H32.25a.93.93,0,0,1-.93-.92V.92A.93.93,0,0,1,32.25,0h6.07a.92.92,0,0,1,.93.92Z" fill="#fff"/><path d="M83.24,38.83a16.37,16.37,0,0,0,2.63-.22,21.14,21.14,0,0,0,2.66-.6,14.71,14.71,0,0,0,2.35-.87,10,10,0,0,0,.88-.48.93.93,0,0,1,1.33.36l2.6,5.25a.93.93,0,0,1-.41,1.24,32.38,32.38,0,0,1-5.08,2,26.92,26.92,0,0,1-8,1.05,18.78,18.78,0,0,1-7-1.27,16.85,16.85,0,0,1-5.54-3.54A15.76,15.76,0,0,1,66,36.43a16.93,16.93,0,0,1-1.31-6.65A17.25,17.25,0,0,1,66,23a16.2,16.2,0,0,1,9-8.83,17.49,17.49,0,0,1,6.6-1.24,17.15,17.15,0,0,1,6.76,1.3A14.39,14.39,0,0,1,93.66,18a17.45,17.45,0,0,1,3.39,6.14,22.64,22.64,0,0,1,1,7.3.92.92,0,0,1-.92.91H72.83a7.54,7.54,0,0,0,3.31,4.87,11.49,11.49,0,0,0,6.25,1.58ZM86.92,21.4a9.57,9.57,0,0,0-5.43-1.47,8.72,8.72,0,0,0-5.44,1.67,8,8,0,0,0-2.94,4.21H89.75A6.7,6.7,0,0,0,86.92,21.4Z" fill="#fff"/><path d="M94.89,61.3A34.71,34.71,0,0,0,88.18,51a.93.93,0,0,0-1.33,0l-4.66,4.66a.93.93,0,0,0,0,1.29,26.26,26.26,0,0,1-.69,36.44.93.93,0,0,0,0,1.31l4.66,4.66a.92.92,0,0,0,1.3,0h0a34.73,34.73,0,0,0,7.44-38Z" fill="#27eb00"/><path d="M79,58.87l-4.66,4.66a.92.92,0,0,0,0,1.27,15.14,15.14,0,0,1-.66,20.72h0a.92.92,0,0,0,0,1.3l4.66,4.66a.92.92,0,0,0,1.3,0,23.57,23.57,0,0,0,.75-32.6A.93.93,0,0,0,79,58.87Z" fill="#27eb00"/><path d="M62.91,90a15.15,15.15,0,1,1,7.17-28.5.94.94,0,0,0,1.1-.16L76,56.51a.93.93,0,0,0-.15-1.43,23.6,23.6,0,0,0-24.07-1,.87.87,0,0,0-.43.51l-10.06,29a.91.91,0,0,0,0,.67A23.6,23.6,0,0,0,74.9,95.12a.92.92,0,0,0,.18-1.45L70.21,88.8a.93.93,0,0,0-1-.19A15.11,15.11,0,0,1,62.91,90Z" fill="#fff"/><path d="M56.4,75a1.09,1.09,0,0,1,0-.18,6.53,6.53,0,0,1,6.52-6.52c.25,0,.49,0,.73,0a.94.94,0,0,0,.77-.26l3.26-3.26a.92.92,0,0,0-.31-1.51,12.34,12.34,0,1,0-4.45,23.85,12.51,12.51,0,0,0,3.26-.44.93.93,0,0,0,.41-1.55L63,81.58a.92.92,0,0,0-.58-.27A6.53,6.53,0,0,1,56.4,75Z" fill="#fff"/><path d="M71,66.84l-2.82,2.82a.92.92,0,0,0-.09,1.21,6.51,6.51,0,0,1-.58,8.55.93.93,0,0,0,0,1.31l2.81,2.81a.92.92,0,0,0,1.3,0,12.33,12.33,0,0,0,.75-16.66A.93.93,0,0,0,71,66.84Z" fill="#27eb00"/><path d="M15.15,96.83.42,54.11a.93.93,0,0,1,.88-1.23H11a.92.92,0,0,1,.88.63L22.09,84.29a.92.92,0,0,0,1.75,0L34.08,53.51a.9.9,0,0,1,.87-.63h9.68a.92.92,0,0,1,.87,1.23L30.78,96.83a.92.92,0,0,1-.88.63H16A.92.92,0,0,1,15.15,96.83Z" fill="#fff"/><path d="M109.61,45.91a7.22,7.22,0,0,1-4.55-1.5A5.26,5.26,0,0,1,103.12,40,5.34,5.34,0,0,1,105,35.74a6.75,6.75,0,0,1,4.63-1.63,6.6,6.6,0,0,1,4.59,1.63A5.37,5.37,0,0,1,116,40a5.55,5.55,0,0,1-1.78,4.32A6.62,6.62,0,0,1,109.61,45.91Z" fill="#27eb00"/><rect x="104.07" y="52.88" width="11.09" height="44.58" rx="0.92" fill="#fff"/><path d="M122.42,84.27a25.6,25.6,0,0,1,0-18.76,22.36,22.36,0,0,1,5-7.48,22.88,22.88,0,0,1,7.6-5,25.11,25.11,0,0,1,9.54-1.78,32.34,32.34,0,0,1,14.64,3.24.92.92,0,0,1,.44,1.21L156,64a.93.93,0,0,1-1.27.45,21.69,21.69,0,0,0-4-1.55,20.2,20.2,0,0,0-5.7-.76,14.69,14.69,0,0,0-5.23.91,11.16,11.16,0,0,0-4,2.62,12,12,0,0,0-2.57,4,15.23,15.23,0,0,0,0,10.37,11.61,11.61,0,0,0,2.57,4,11.46,11.46,0,0,0,4,2.57,14.47,14.47,0,0,0,5.23.91,21.81,21.81,0,0,0,5.7-.71,19.43,19.43,0,0,0,4-1.57.92.92,0,0,1,1.27.45l3.67,8.3a.93.93,0,0,1-.45,1.21,32.58,32.58,0,0,1-6.32,2.26,35.46,35.46,0,0,1-8.32.91A25.3,25.3,0,0,1,135,96.63a23.42,23.42,0,0,1-7.6-4.91A22,22,0,0,1,122.42,84.27Z" fill="#fff"/><path d="M188.31,87.56a22,22,0,0,0,3.68-.32,30.59,30.59,0,0,0,3.72-.83A22.27,22.27,0,0,0,199,85.19a10.84,10.84,0,0,0,1.53-.89.93.93,0,0,1,1.36.35l4,8a.92.92,0,0,1-.39,1.23,45.91,45.91,0,0,1-7.44,3,37.81,37.81,0,0,1-11.25,1.47A26.34,26.34,0,0,1,177,96.63a23.74,23.74,0,0,1-7.76-4.95,22.3,22.3,0,0,1-5.1-7.48,23.61,23.61,0,0,1-1.83-9.31,23.92,23.92,0,0,1,1.86-9.5A22.62,22.62,0,0,1,176.78,53,24.48,24.48,0,0,1,186,51.3a24,24,0,0,1,9.46,1.82,20.07,20.07,0,0,1,7.41,5.34,24.53,24.53,0,0,1,4.75,8.59,32.22,32.22,0,0,1,1.45,10.58.93.93,0,0,1-.93.9H175a.93.93,0,0,0-.88,1.22,10.22,10.22,0,0,0,4.29,5.59,16.1,16.1,0,0,0,8.75,2.22Zm5.14-24.39a13.42,13.42,0,0,0-7.6-2.06,12.22,12.22,0,0,0-7.6,2.34,11.13,11.13,0,0,0-3.66,4.61.93.93,0,0,0,.85,1.29h20.77a.93.93,0,0,0,.89-1.2A9.13,9.13,0,0,0,193.45,63.17Z" fill="#fff"/><path d="M13.84,129.11H7.69a9.86,9.86,0,0,1-1.85-.17,3.17,3.17,0,0,1-1.42-.66,2.4,2.4,0,0,1-.72-1.13,6.23,6.23,0,0,1-.2-1.68v-3.78H.42v4.15a9.76,9.76,0,0,0,.33,2.56,4.15,4.15,0,0,0,1.14,2,5.92,5.92,0,0,0,1.07.83,6.13,6.13,0,0,0,1.24.56,9,9,0,0,0,1.48.32,16.08,16.08,0,0,0,1.79.09h9.44V119.83H13.84Z" fill="#fff"/><path d="M11,134a1.9,1.9,0,0,0-1.29-.45,1.87,1.87,0,0,0-1.28.45,1.5,1.5,0,0,0-.52,1.17,1.44,1.44,0,0,0,.54,1.23,2.12,2.12,0,0,0,2.53,0,1.43,1.43,0,0,0,.53-1.23A1.49,1.49,0,0,0,11,134Z" fill="#fff"/><path d="M64.51,117.15a2.14,2.14,0,0,0,2.52,0,1.46,1.46,0,0,0,.54-1.23,1.48,1.48,0,0,0-.52-1.18,1.87,1.87,0,0,0-1.28-.45,1.91,1.91,0,0,0-1.29.45,1.51,1.51,0,0,0-.51,1.18A1.46,1.46,0,0,0,64.51,117.15Z" fill="#fff"/><path d="M123.49,129.11H104.14c0-.22.08-.44.11-.68a5.58,5.58,0,0,0,0-.72,6.89,6.89,0,0,0-.51-2.66,6.54,6.54,0,0,0-1.43-2.13,6.91,6.91,0,0,0-2.13-1.42,6.66,6.66,0,0,0-2.6-.51,6.15,6.15,0,0,0-2.56.53A6.6,6.6,0,0,0,93,123a6.88,6.88,0,0,0-1.41,2.13,6.77,6.77,0,0,0-.51,2.63q0,.37,0,.72a3.71,3.71,0,0,0,.12.68H69.94l2.63-7a15.57,15.57,0,0,0-3.18-2.26,7.62,7.62,0,0,0-3.58-.88,7.32,7.32,0,0,0-1.82.23,9,9,0,0,0-1.7.65,12.56,12.56,0,0,0-1.62,1c-.54.38-1.07.8-1.6,1.25l2.73,7H25.07v-9.28H22v12a2.92,2.92,0,0,1-.36,1.65,1.5,1.5,0,0,1-1.29.5,5.07,5.07,0,0,1-.68,0,5.8,5.8,0,0,1-.76-.16l.21,3.08a5,5,0,0,0,.71.14,6,6,0,0,0,.85,0,4.13,4.13,0,0,0,3.21-1.14,5.89,5.89,0,0,0,1.16-3.69H92.83A6.92,6.92,0,0,0,95,133.71a6.35,6.35,0,0,0,2.64.56,6.61,6.61,0,0,0,2.69-.55,6.36,6.36,0,0,0,2.18-1.54h24.08V117.45H128v-3.07h-4.5Zm-56.34,0H64.52l-2-5.66a6.72,6.72,0,0,1,1.6-.9,5.21,5.21,0,0,1,3.37,0,7.1,7.1,0,0,1,1.66.9Zm33.79,0a3.32,3.32,0,0,1-.76,1.12,3.57,3.57,0,0,1-1.16.73,3.64,3.64,0,0,1-1.4.27,3.31,3.31,0,0,1-1.38-.28,3.38,3.38,0,0,1-1.85-1.86,3.9,3.9,0,0,1,0-2.8,3.54,3.54,0,0,1,.73-1.14,3.27,3.27,0,0,1,1.09-.77,3.45,3.45,0,0,1,1.41-.29,3.61,3.61,0,0,1,1.45.28,3.43,3.43,0,0,1,1.14.75,3.58,3.58,0,0,1,.75,1.15,3.86,3.86,0,0,1,.26,1.42A3.49,3.49,0,0,1,100.94,129.08Z" fill="#fff"/><rect x="131.73" y="114.38" width="3.07" height="17.8" fill="#fff"/><path d="M148.91,118.72a2,2,0,0,0,2.42,0,1.45,1.45,0,0,0,.5-1.18,1.42,1.42,0,0,0-.49-1.13,1.95,1.95,0,0,0-2.44,0,1.42,1.42,0,0,0-.49,1.13A1.45,1.45,0,0,0,148.91,118.72Z" fill="#fff"/><path d="M153.68,118.72a2,2,0,0,0,2.41,0,1.58,1.58,0,0,0,0-2.31,1.95,1.95,0,0,0-2.44,0,1.57,1.57,0,0,0,0,2.31Z" fill="#fff"/><path d="M157.56,129.11h-6.14a9.78,9.78,0,0,1-1.85-.17,3.17,3.17,0,0,1-1.42-.66,2.4,2.4,0,0,1-.72-1.13,5.83,5.83,0,0,1-.21-1.68v-3.78h-3.07v4.15a9.76,9.76,0,0,0,.33,2.56,4.15,4.15,0,0,0,1.14,2,5.92,5.92,0,0,0,1.07.83,6.13,6.13,0,0,0,1.24.56,8.75,8.75,0,0,0,1.48.32,16.08,16.08,0,0,0,1.79.09h9.44V119.83h-3.08Z" fill="#fff"/><path d="M208.8,124.47a4.17,4.17,0,0,0-1-1.9,4.73,4.73,0,0,0-2-1.26,7.88,7.88,0,0,0-2.61-.39h-6.69v-1.09h-3.08v9.28H174.16l0-9.28h-3.47a10.37,10.37,0,0,0-3,.42,7.53,7.53,0,0,0-2.38,1.22,5.5,5.5,0,0,0-1.56,1.93,5.86,5.86,0,0,0-.56,2.59,6.46,6.46,0,0,0,.58,2.83,5.28,5.28,0,0,0,1.61,1.92,6.9,6.9,0,0,0,2.39,1.09,11.58,11.58,0,0,0,3,.35h.35a2.28,2.28,0,0,1-.27.93,1.4,1.4,0,0,1-.55.53,2.2,2.2,0,0,1-.82.25c-.33,0-.7.05-1.12.05a8.81,8.81,0,0,1-1.54-.13,13.16,13.16,0,0,1-1.67-.42l.22,3.1.9.24.76.15a5.83,5.83,0,0,0,.73.1c.25,0,.52,0,.82,0a7.65,7.65,0,0,0,2.5-.35,4.44,4.44,0,0,0,1.69-1,4.13,4.13,0,0,0,1-1.53,7,7,0,0,0,.41-2h35V127A10.43,10.43,0,0,0,208.8,124.47Zm-37.69,4.64h-1.3a4.45,4.45,0,0,1-1.39-.2,3.29,3.29,0,0,1-1.13-.59,2.62,2.62,0,0,1-.76-1,3.13,3.13,0,0,1-.28-1.35,2.7,2.7,0,0,1,.3-1.27,3.13,3.13,0,0,1,.79-1,3.5,3.5,0,0,1,1.14-.62,4,4,0,0,1,1.33-.22h1.3Zm34.9,0h-9.46V124h7a2.49,2.49,0,0,1,1.09.25,2.15,2.15,0,0,1,.77.61,2.26,2.26,0,0,1,.45.87,4,4,0,0,1,.15,1.15Z" fill="#fff"/></svg>